<?xml version="1.0" encoding="utf-8"?>
<!-- Generator: Adobe Illustrator 14.0.0, SVG Export Plug-In . SVG Version: 6.00 Build 43363)  -->
<!DOCTYPE svg PUBLIC "-//W3C//DTD SVG 1.1//EN" "http://www.w3.org/Graphics/SVG/1.1/DTD/svg11.dtd">
<svg version="1.1" id="Layer_1" xmlns="http://www.w3.org/2000/svg" xmlns:xlink="http://www.w3.org/1999/xlink" x="0px" y="0px"
	 width="128px" height="128px" viewBox="0 0 128 128" enable-background="new 0 0 128 128" xml:space="preserve">
<g>
	
		<linearGradient id="SVGID_1_" gradientUnits="userSpaceOnUse" x1="147.4111" y1="-216.1968" x2="148.9012" y2="-231.4948" gradientTransform="matrix(1 0 0 -1 -96 -112)">
		<stop  offset="0" style="stop-color:#999999"/>
		<stop  offset="1" style="stop-color:#4D4D4D"/>
	</linearGradient>
	<path opacity="0.2" fill="url(#SVGID_1_)" enable-background="new    " d="M10.373,108.665c0,3.9,3.441,5.717,4.948,5.717h74.861
		c2.985-0.194,3.165-2.729,3.165-5.775v0.088C93.347,105.599,10.373,108.665,10.373,108.665z"/>
	
		<linearGradient id="SVGID_2_" gradientUnits="userSpaceOnUse" x1="149.6445" y1="-216.5156" x2="151.191" y2="-232.3932" gradientTransform="matrix(1 0 0 -1 -96 -112)">
		<stop  offset="0" style="stop-color:#999999"/>
		<stop  offset="1" style="stop-color:#4D4D4D"/>
	</linearGradient>
	<path opacity="0.2" fill="url(#SVGID_2_)" enable-background="new    " d="M10.373,109.479c0,3.341,2.486,5.716,4.948,5.716h77.305
		c2.985-0.193,5.416-0.612,5.416-3.658l-0.127-2.028C97.915,106.492,10.373,107.765,10.373,109.479z"/>
	
		<linearGradient id="SVGID_3_" gradientUnits="userSpaceOnUse" x1="150.4531" y1="-214.9883" x2="152.2543" y2="-233.48" gradientTransform="matrix(1 0 0 -1 -96 -112)">
		<stop  offset="0" style="stop-color:#999999"/>
		<stop  offset="1" style="stop-color:#4D4D4D"/>
	</linearGradient>
	<path opacity="0.2" fill="url(#SVGID_3_)" enable-background="new    " d="M94.149,109.36l-83.776-1.509v2.439
		c0,4.586,3.441,5.717,4.948,5.717h78.534c1.316-0.084,2.704-0.215,3.845-0.593c1.449-0.48,2.5-1.362,2.5-3.066
		C100.199,112.349,98.833,109.36,94.149,109.36z"/>
</g>
<path opacity="0.5" fill="#006400" d="M84.014,109.492H15.452c1.807,1.25,4.104,2.002,6.609,2.002h61.953
	c5.812,0,10.521-4.029,10.521-9v-2.002C94.535,105.463,89.825,109.492,84.014,109.492z"/>
<g>
	<path fill="#006400" d="M24.017,112.494c-6.353,0-11.521-4.486-11.521-10V50.113c0-5.514,5.168-10,11.521-10H85.97
		c6.353,0,11.521,4.486,11.521,10v52.381c0,5.514-5.169,10-11.521,10H24.017z"/>
	<radialGradient id="SVGID_4_" cx="71.5" cy="141.5" r="142.0036" gradientUnits="userSpaceOnUse">
		<stop  offset="0" style="stop-color:#82FF46"/>
		<stop  offset="0.4225" style="stop-color:#50B40A"/>
		<stop  offset="0.8022" style="stop-color:#50960A"/>
	</radialGradient>
	<path fill="url(#SVGID_4_)" d="M96.491,102.494c0,4.971-4.71,9-10.521,9H24.017c-5.811,0-10.521-4.029-10.521-9V50.113
		c0-4.971,4.71-9,10.521-9H85.97c5.812,0,10.521,4.029,10.521,9V102.494z"/>
	<radialGradient id="SVGID_5_" cx="72.3789" cy="145.7695" r="135.2447" gradientUnits="userSpaceOnUse">
		<stop  offset="0" style="stop-color:#82FF46"/>
		<stop  offset="1" style="stop-color:#50B40A"/>
	</radialGradient>
	<path opacity="0.7" fill="url(#SVGID_5_)" d="M96.491,56.874H13.496v41.561c9.507-4.602,23.169-10.724,38.141-12.529
		c16.992-2.049,34.033-1.239,44.855-0.595V56.874z"/>
	<linearGradient id="SVGID_6_" gradientUnits="userSpaceOnUse" x1="19.7563" y1="41.1133" x2="19.7563" y2="106.2808">
		<stop  offset="0" style="stop-color:#FFFFFF"/>
		<stop  offset="0.6933" style="stop-color:#FFFFFF;stop-opacity:0.4"/>
	</linearGradient>
	<path opacity="0.5" fill="url(#SVGID_6_)" d="M15.497,102.494V50.113c0-4.971,4.71-9,10.521-9h-2.001
		c-5.811,0-10.521,4.029-10.521,9v52.381c0,1.354,0.359,2.634,0.986,3.786c0.542-0.306,1.077-0.588,1.601-0.848
		C15.709,104.511,15.497,103.524,15.497,102.494z"/>
</g>
<g>
	<path fill="#006400" d="M13.487,62.733c-6.228,0-11.294-5.064-11.294-11.29V20.14c0-6.228,5.066-11.294,11.294-11.294H96.5
		c6.228,0,11.294,5.066,11.294,11.294v31.304c0,6.226-5.066,11.29-11.294,11.29H13.487z"/>
	<radialGradient id="SVGID_7_" cx="89.5" cy="91.5" r="144.1387" gradientUnits="userSpaceOnUse">
		<stop  offset="0" style="stop-color:#82FF46"/>
		<stop  offset="0.4225" style="stop-color:#50B40A"/>
		<stop  offset="0.8022" style="stop-color:#50960A"/>
	</radialGradient>
	<path fill="url(#SVGID_7_)" d="M106.794,51.443c0,5.685-4.609,10.291-10.294,10.291H13.487c-5.685,0-10.294-4.606-10.294-10.291
		V20.14c0-5.686,4.609-10.294,10.294-10.294H96.5c5.685,0,10.294,4.608,10.294,10.294V51.443z"/>
	<radialGradient id="SVGID_8_" cx="89.5" cy="91.5" r="144.1389" gradientUnits="userSpaceOnUse">
		<stop  offset="0" style="stop-color:#82FF46"/>
		<stop  offset="1" style="stop-color:#50B40A"/>
	</radialGradient>
	<path opacity="0.9" fill="url(#SVGID_8_)" d="M96.5,9.846H13.487c-5.685,0-10.294,4.608-10.294,10.294v31.304
		c0,1.581,0.367,3.073,1.004,4.411c7.976-3.396,24.421-11.441,45.438-13.975c24.699-2.979,43.406-1.768,57.159-0.102V20.14
		C106.794,14.454,102.185,9.846,96.5,9.846z"/>
	<path opacity="0.5" fill="#FFFFFF" d="M5.194,53.444V22.141c0-5.686,4.609-10.294,10.294-10.294h83.014
		c2.331,0,4.474,0.784,6.199,2.09c-1.88-2.481-4.849-4.091-8.201-4.091H13.487c-5.685,0-10.294,4.608-10.294,10.294v31.304
		c0,3.352,1.61,6.321,4.091,8.199C5.978,57.917,5.194,55.775,5.194,53.444z"/>
</g>
</svg>
